<?xml version="1.0" encoding="UTF-8" standalone="no"?>
<!DOCTYPE svg PUBLIC "-//W3C//DTD SVG 1.1//EN"
 "http://www.w3.org/Graphics/SVG/1.1/DTD/svg11.dtd">
<!-- Generated by graphviz version 14.1.3 (0)
 -->
<!-- Title: snakemake_dag Pages: 1 -->
<svg width="313pt" height="692pt"
 viewBox="0.00 0.00 313.00 692.00" xmlns="http://www.w3.org/2000/svg" xmlns:xlink="http://www.w3.org/1999/xlink">
<g id="graph0" class="graph" transform="scale(1 1) rotate(0) translate(4 688)">
<title>snakemake_dag</title>
<polygon fill="white" stroke="none" points="-4,4 -4,-688 309.12,-688 309.12,4 -4,4"/>
<!-- 0 -->
<g id="node1" class="node">
<title>0</title>
<path fill="none" stroke="#d87d56" stroke-width="2" d="M143.62,-36C143.62,-36 113.62,-36 113.62,-36 107.62,-36 101.62,-30 101.62,-24 101.62,-24 101.62,-12 101.62,-12 101.62,-6 107.62,0 113.62,0 113.62,0 143.62,0 143.62,0 149.62,0 155.62,-6 155.62,-12 155.62,-12 155.62,-24 155.62,-24 155.62,-30 149.62,-36 143.62,-36"/>
<text xml:space="preserve" text-anchor="middle" x="128.62" y="-14.88" font-family="sans" font-size="10.00">all</text>
</g>
<!-- 1 -->
<g id="node2" class="node">
<title>1</title>
<path fill="none" stroke="#56d0d8" stroke-width="2" d="M81.25,-252C81.25,-252 12,-252 12,-252 6,-252 0,-246 0,-240 0,-240 0,-228 0,-228 0,-222 6,-216 12,-216 12,-216 81.25,-216 81.25,-216 87.25,-216 93.25,-222 93.25,-228 93.25,-228 93.25,-240 93.25,-240 93.25,-246 87.25,-252 81.25,-252"/>
<text xml:space="preserve" text-anchor="middle" x="46.62" y="-230.88" font-family="sans" font-size="10.00">samtools_index</text>
</g>
<!-- 1&#45;&gt;0 -->
<g id="edge1" class="edge">
<title>1&#45;&gt;0</title>
<path fill="none" stroke="grey" stroke-width="2" d="M42.99,-215.43C37.49,-183.99 30.45,-117.19 58.62,-72 66.4,-59.52 78.26,-48.92 90.02,-40.56"/>
<polygon fill="grey" stroke="grey" stroke-width="2" points="91.73,-43.62 98.14,-35.18 87.87,-37.78 91.73,-43.62"/>
</g>
<!-- 9 -->
<g id="node10" class="node">
<title>9</title>
<path fill="none" stroke="#56d86b" stroke-width="2" d="M177.5,-108C177.5,-108 79.75,-108 79.75,-108 73.75,-108 67.75,-102 67.75,-96 67.75,-96 67.75,-84 67.75,-84 67.75,-78 73.75,-72 79.75,-72 79.75,-72 177.5,-72 177.5,-72 183.5,-72 189.5,-78 189.5,-84 189.5,-84 189.5,-96 189.5,-96 189.5,-102 183.5,-108 177.5,-108"/>
<text xml:space="preserve" text-anchor="middle" x="128.62" y="-86.88" font-family="sans" font-size="10.00">methyldackel_extract</text>
</g>
<!-- 1&#45;&gt;9 -->
<g id="edge11" class="edge">
<title>1&#45;&gt;9</title>
<path fill="none" stroke="grey" stroke-width="2" d="M45.7,-215.34C45.52,-196.41 47.6,-166.1 60.62,-144 66.82,-133.49 75.96,-124.3 85.55,-116.65"/>
<polygon fill="grey" stroke="grey" stroke-width="2" points="87.58,-119.5 93.57,-110.76 83.44,-113.86 87.58,-119.5"/>
</g>
<!-- 10 -->
<g id="node11" class="node">
<title>10</title>
<path fill="none" stroke="#56d892" stroke-width="2" d="M175.25,-180C175.25,-180 82,-180 82,-180 76,-180 70,-174 70,-168 70,-168 70,-156 70,-156 70,-150 76,-144 82,-144 82,-144 175.25,-144 175.25,-144 181.25,-144 187.25,-150 187.25,-156 187.25,-156 187.25,-168 187.25,-168 187.25,-174 181.25,-180 175.25,-180"/>
<text xml:space="preserve" text-anchor="middle" x="128.62" y="-158.88" font-family="sans" font-size="10.00">methyldackel_mbias</text>
</g>
<!-- 1&#45;&gt;10 -->
<g id="edge14" class="edge">
<title>1&#45;&gt;10</title>
<path fill="none" stroke="grey" stroke-width="2" d="M67.32,-215.34C76.57,-207.44 87.67,-197.96 97.86,-189.26"/>
<polygon fill="grey" stroke="grey" stroke-width="2" points="100.02,-192.02 105.35,-182.87 95.47,-186.7 100.02,-192.02"/>
</g>
<!-- 2 -->
<g id="node3" class="node">
<title>2</title>
<path fill="none" stroke="#68d856" stroke-width="2" d="M157.62,-324C157.62,-324 105.62,-324 105.62,-324 99.62,-324 93.62,-318 93.62,-312 93.62,-312 93.62,-300 93.62,-300 93.62,-294 99.62,-288 105.62,-288 105.62,-288 157.62,-288 157.62,-288 163.62,-288 169.62,-294 169.62,-300 169.62,-300 169.62,-312 169.62,-312 169.62,-318 163.62,-324 157.62,-324"/>
<text xml:space="preserve" text-anchor="middle" x="131.62" y="-302.88" font-family="sans" font-size="10.00">mark_dupes</text>
</g>
<!-- 2&#45;&gt;1 -->
<g id="edge4" class="edge">
<title>2&#45;&gt;1</title>
<path fill="none" stroke="grey" stroke-width="2" d="M110.18,-287.34C100.49,-279.36 88.84,-269.77 78.18,-260.99"/>
<polygon fill="grey" stroke="grey" stroke-width="2" points="80.64,-258.48 70.7,-254.83 76.19,-263.88 80.64,-258.48"/>
</g>
<!-- 2&#45;&gt;9 -->
<g id="edge13" class="edge">
<title>2&#45;&gt;9</title>
<path fill="none" stroke="grey" stroke-width="2" d="M148.64,-287.25C175.28,-257.21 221.36,-194.65 196.62,-144 191.37,-133.23 182.75,-124.02 173.39,-116.44"/>
<polygon fill="grey" stroke="grey" stroke-width="2" points="175.63,-113.74 165.5,-110.65 171.49,-119.39 175.63,-113.74"/>
</g>
<!-- 2&#45;&gt;10 -->
<g id="edge15" class="edge">
<title>2&#45;&gt;10</title>
<path fill="none" stroke="grey" stroke-width="2" d="M131.25,-287.02C130.75,-263.54 129.87,-222.11 129.27,-193.64"/>
<polygon fill="grey" stroke="grey" stroke-width="2" points="132.78,-193.79 129.07,-183.86 125.78,-193.94 132.78,-193.79"/>
</g>
<!-- 3 -->
<g id="node4" class="node">
<title>3</title>
<path fill="none" stroke="#d85656" stroke-width="2" d="M172.25,-396C172.25,-396 97,-396 97,-396 91,-396 85,-390 85,-384 85,-384 85,-372 85,-372 85,-366 91,-360 97,-360 97,-360 172.25,-360 172.25,-360 178.25,-360 184.25,-366 184.25,-372 184.25,-372 184.25,-384 184.25,-384 184.25,-390 178.25,-396 172.25,-396"/>
<text xml:space="preserve" text-anchor="middle" x="134.62" y="-374.88" font-family="sans" font-size="10.00">add_read_groups</text>
</g>
<!-- 3&#45;&gt;2 -->
<g id="edge5" class="edge">
<title>3&#45;&gt;2</title>
<path fill="none" stroke="grey" stroke-width="2" d="M133.87,-359.34C133.59,-352.75 133.26,-345.08 132.94,-337.67"/>
<polygon fill="grey" stroke="grey" stroke-width="2" points="136.45,-337.77 132.52,-327.93 129.45,-338.07 136.45,-337.77"/>
</g>
<!-- 4 -->
<g id="node5" class="node">
<title>4</title>
<path fill="none" stroke="#56a9d8" stroke-width="2" d="M171.12,-468C171.12,-468 110.12,-468 110.12,-468 104.12,-468 98.12,-462 98.12,-456 98.12,-456 98.12,-444 98.12,-444 98.12,-438 104.12,-432 110.12,-432 110.12,-432 171.12,-432 171.12,-432 177.12,-432 183.12,-438 183.12,-444 183.12,-444 183.12,-456 183.12,-456 183.12,-462 177.12,-468 171.12,-468"/>
<text xml:space="preserve" text-anchor="middle" x="140.62" y="-446.88" font-family="sans" font-size="10.00">samtools_sort</text>
</g>
<!-- 4&#45;&gt;3 -->
<g id="edge6" class="edge">
<title>4&#45;&gt;3</title>
<path fill="none" stroke="grey" stroke-width="2" d="M139.11,-431.34C138.55,-424.75 137.89,-417.08 137.25,-409.67"/>
<polygon fill="grey" stroke="grey" stroke-width="2" points="140.76,-409.58 136.42,-399.92 133.78,-410.18 140.76,-409.58"/>
</g>
<!-- 5 -->
<g id="node6" class="node">
<title>5</title>
<path fill="none" stroke="#d8a456" stroke-width="2" d="M191.12,-540C191.12,-540 130.12,-540 130.12,-540 124.12,-540 118.12,-534 118.12,-528 118.12,-528 118.12,-516 118.12,-516 118.12,-510 124.12,-504 130.12,-504 130.12,-504 191.12,-504 191.12,-504 197.12,-504 203.12,-510 203.12,-516 203.12,-516 203.12,-528 203.12,-528 203.12,-534 197.12,-540 191.12,-540"/>
<text xml:space="preserve" text-anchor="middle" x="160.62" y="-518.88" font-family="sans" font-size="10.00">bismark_align</text>
</g>
<!-- 5&#45;&gt;4 -->
<g id="edge7" class="edge">
<title>5&#45;&gt;4</title>
<path fill="none" stroke="grey" stroke-width="2" d="M155.58,-503.34C153.67,-496.67 151.45,-488.89 149.31,-481.39"/>
<polygon fill="grey" stroke="grey" stroke-width="2" points="152.68,-480.47 146.57,-471.81 145.95,-482.39 152.68,-480.47"/>
</g>
<!-- 6 -->
<g id="node7" class="node">
<title>6</title>
<path fill="none" stroke="#567bd8" stroke-width="2" d="M223.5,-612C223.5,-612 167.75,-612 167.75,-612 161.75,-612 155.75,-606 155.75,-600 155.75,-600 155.75,-588 155.75,-588 155.75,-582 161.75,-576 167.75,-576 167.75,-576 223.5,-576 223.5,-576 229.5,-576 235.5,-582 235.5,-588 235.5,-588 235.5,-600 235.5,-600 235.5,-606 229.5,-612 223.5,-612"/>
<text xml:space="preserve" text-anchor="middle" x="195.62" y="-590.88" font-family="sans" font-size="10.00">trimmomatic</text>
</g>
<!-- 6&#45;&gt;5 -->
<g id="edge8" class="edge">
<title>6&#45;&gt;5</title>
<path fill="none" stroke="grey" stroke-width="2" d="M186.79,-575.34C183.3,-568.34 179.18,-560.12 175.27,-552.28"/>
<polygon fill="grey" stroke="grey" stroke-width="2" points="178.53,-550.99 170.93,-543.61 172.27,-554.12 178.53,-550.99"/>
</g>
<!-- 8 -->
<g id="node9" class="node">
<title>8</title>
<path fill="none" stroke="#8fd856" stroke-width="2" d="M293.12,-468C293.12,-468 214.12,-468 214.12,-468 208.12,-468 202.12,-462 202.12,-456 202.12,-456 202.12,-444 202.12,-444 202.12,-438 208.12,-432 214.12,-432 214.12,-432 293.12,-432 293.12,-432 299.12,-432 305.12,-438 305.12,-444 305.12,-444 305.12,-456 305.12,-456 305.12,-462 299.12,-468 293.12,-468"/>
<text xml:space="preserve" text-anchor="middle" x="253.62" y="-446.88" font-family="sans" font-size="10.00">fastqc_trimmmed</text>
</g>
<!-- 6&#45;&gt;8 -->
<g id="edge10" class="edge">
<title>6&#45;&gt;8</title>
<path fill="none" stroke="grey" stroke-width="2" d="M202.97,-575.02C212.65,-551.33 229.79,-509.35 241.43,-480.86"/>
<polygon fill="grey" stroke="grey" stroke-width="2" points="244.65,-482.22 245.19,-471.64 238.17,-479.57 244.65,-482.22"/>
</g>
<!-- 7 -->
<g id="node8" class="node">
<title>7</title>
<path fill="none" stroke="#b6d856" stroke-width="2" d="M218.25,-684C218.25,-684 173,-684 173,-684 167,-684 161,-678 161,-672 161,-672 161,-660 161,-660 161,-654 167,-648 173,-648 173,-648 218.25,-648 218.25,-648 224.25,-648 230.25,-654 230.25,-660 230.25,-660 230.25,-672 230.25,-672 230.25,-678 224.25,-684 218.25,-684"/>
<text xml:space="preserve" text-anchor="middle" x="195.62" y="-662.88" font-family="sans" font-size="10.00">fastqc_raw</text>
</g>
<!-- 7&#45;&gt;6 -->
<g id="edge9" class="edge">
<title>7&#45;&gt;6</title>
<path fill="none" stroke="grey" stroke-width="2" d="M195.62,-647.34C195.62,-640.75 195.62,-633.08 195.62,-625.67"/>
<polygon fill="grey" stroke="grey" stroke-width="2" points="199.13,-625.93 195.63,-615.93 192.13,-625.93 199.13,-625.93"/>
</g>
<!-- 8&#45;&gt;0 -->
<g id="edge2" class="edge">
<title>8&#45;&gt;0</title>
<path fill="none" stroke="grey" stroke-width="2" d="M253.62,-431.07C253.62,-404.13 253.62,-351.62 253.62,-307 253.62,-307 253.62,-307 253.62,-161 253.62,-108.02 203.99,-65.42 167.28,-41.16"/>
<polygon fill="grey" stroke="grey" stroke-width="2" points="169.24,-38.26 158.92,-35.86 165.49,-44.17 169.24,-38.26"/>
</g>
<!-- 9&#45;&gt;0 -->
<g id="edge3" class="edge">
<title>9&#45;&gt;0</title>
<path fill="none" stroke="grey" stroke-width="2" d="M128.62,-71.34C128.62,-64.75 128.62,-57.08 128.62,-49.67"/>
<polygon fill="grey" stroke="grey" stroke-width="2" points="132.13,-49.93 128.63,-39.93 125.13,-49.93 132.13,-49.93"/>
</g>
<!-- 10&#45;&gt;9 -->
<g id="edge12" class="edge">
<title>10&#45;&gt;9</title>
<path fill="none" stroke="grey" stroke-width="2" d="M128.62,-143.34C128.62,-136.75 128.62,-129.08 128.62,-121.67"/>
<polygon fill="grey" stroke="grey" stroke-width="2" points="132.13,-121.93 128.63,-111.93 125.13,-121.93 132.13,-121.93"/>
</g>
</g>
</svg>
